<mxfile host="app.diagrams.net" modified="2023-10-12T18:00:25.510Z" agent="Mozilla/5.0 (Windows NT 10.0; Win64; x64) AppleWebKit/537.36 (KHTML, like Gecko) Chrome/117.0.0.0 Safari/537.36" etag="Ss4T2w2NDS_yDsdj5due" version="22.0.4" type="google">
  <diagram name="Page-1" id="nX9-_jQTFzbznbtol3L9">
    <mxGraphModel grid="1" page="1" gridSize="10" guides="1" tooltips="1" connect="1" arrows="1" fold="1" pageScale="1" pageWidth="1600" pageHeight="900" math="0" shadow="0">
      <root>
        <mxCell id="0" />
        <mxCell id="1" parent="0" />
        <mxCell id="Rha3YxTJj9hbvIwffvZX-1" value="Usuário" style="shape=umlActor;verticalLabelPosition=bottom;verticalAlign=top;html=1;outlineConnect=0;" vertex="1" parent="1">
          <mxGeometry x="330" y="220" width="30" height="60" as="geometry" />
        </mxCell>
        <mxCell id="Rha3YxTJj9hbvIwffvZX-2" value="&lt;blockquote style=&quot;margin: 0 0 0 40px; border: none; padding: 0px;&quot;&gt;&lt;div style=&quot;&quot;&gt;&lt;span style=&quot;background-color: initial;&quot;&gt;MoView&lt;/span&gt;&lt;/div&gt;&lt;/blockquote&gt;" style="whiteSpace=wrap;html=1;aspect=fixed;align=center;horizontal=1;verticalAlign=top;" vertex="1" parent="1">
          <mxGeometry x="450" y="70" width="390" height="390" as="geometry" />
        </mxCell>
        <mxCell id="Rha3YxTJj9hbvIwffvZX-3" value="Cadastrar usuário" style="ellipse;whiteSpace=wrap;html=1;" vertex="1" parent="1">
          <mxGeometry x="510" y="220" width="90" height="60" as="geometry" />
        </mxCell>
        <mxCell id="Rha3YxTJj9hbvIwffvZX-4" value="Login Usuário" style="ellipse;whiteSpace=wrap;html=1;" vertex="1" parent="1">
          <mxGeometry x="510" y="100" width="90" height="60" as="geometry" />
        </mxCell>
        <mxCell id="Rha3YxTJj9hbvIwffvZX-5" value="Buscar Por Filmes" style="ellipse;whiteSpace=wrap;html=1;" vertex="1" parent="1">
          <mxGeometry x="510" y="310" width="90" height="60" as="geometry" />
        </mxCell>
        <mxCell id="Rha3YxTJj9hbvIwffvZX-6" value="Avaliar Filme" style="ellipse;whiteSpace=wrap;html=1;" vertex="1" parent="1">
          <mxGeometry x="710" y="210" width="90" height="60" as="geometry" />
        </mxCell>
        <mxCell id="Rha3YxTJj9hbvIwffvZX-7" value="" style="endArrow=none;html=1;rounded=0;exitX=1;exitY=0.3333333333333333;exitDx=0;exitDy=0;exitPerimeter=0;entryX=0;entryY=0.5;entryDx=0;entryDy=0;" edge="1" parent="1" source="Rha3YxTJj9hbvIwffvZX-1" target="Rha3YxTJj9hbvIwffvZX-4">
          <mxGeometry width="50" height="50" relative="1" as="geometry">
            <mxPoint x="700" y="430" as="sourcePoint" />
            <mxPoint x="750" y="380" as="targetPoint" />
          </mxGeometry>
        </mxCell>
        <mxCell id="Rha3YxTJj9hbvIwffvZX-8" value="" style="endArrow=none;html=1;rounded=0;exitX=1;exitY=0.3333333333333333;exitDx=0;exitDy=0;exitPerimeter=0;entryX=0;entryY=0.5;entryDx=0;entryDy=0;" edge="1" parent="1" source="Rha3YxTJj9hbvIwffvZX-1" target="Rha3YxTJj9hbvIwffvZX-3">
          <mxGeometry width="50" height="50" relative="1" as="geometry">
            <mxPoint x="700" y="430" as="sourcePoint" />
            <mxPoint x="750" y="380" as="targetPoint" />
          </mxGeometry>
        </mxCell>
        <mxCell id="Rha3YxTJj9hbvIwffvZX-9" value="&amp;lt;&amp;lt;extend&amp;gt;&amp;gt;" style="html=1;verticalAlign=bottom;labelBackgroundColor=none;endArrow=open;endFill=0;dashed=1;rounded=0;exitX=1;exitY=0;exitDx=0;exitDy=0;entryX=1;entryY=1;entryDx=0;entryDy=0;" edge="1" parent="1" source="Rha3YxTJj9hbvIwffvZX-3" target="Rha3YxTJj9hbvIwffvZX-4">
          <mxGeometry width="160" relative="1" as="geometry">
            <mxPoint x="414" y="360" as="sourcePoint" />
            <mxPoint x="450" y="420" as="targetPoint" />
          </mxGeometry>
        </mxCell>
        <mxCell id="Rha3YxTJj9hbvIwffvZX-10" value="" style="endArrow=none;html=1;rounded=0;entryX=0;entryY=0;entryDx=0;entryDy=0;" edge="1" parent="1" target="Rha3YxTJj9hbvIwffvZX-5">
          <mxGeometry width="50" height="50" relative="1" as="geometry">
            <mxPoint x="360" y="240" as="sourcePoint" />
            <mxPoint x="750" y="380" as="targetPoint" />
          </mxGeometry>
        </mxCell>
        <mxCell id="Rha3YxTJj9hbvIwffvZX-12" value="Detalhar Filme" style="ellipse;whiteSpace=wrap;html=1;" vertex="1" parent="1">
          <mxGeometry x="710" y="340" width="90" height="60" as="geometry" />
        </mxCell>
        <mxCell id="Rha3YxTJj9hbvIwffvZX-13" value="&amp;lt;&amp;lt;extend&amp;gt;&amp;gt;" style="html=1;verticalAlign=bottom;labelBackgroundColor=none;endArrow=open;endFill=0;dashed=1;rounded=0;exitX=1;exitY=0;exitDx=0;exitDy=0;entryX=0;entryY=0.5;entryDx=0;entryDy=0;" edge="1" parent="1" source="Rha3YxTJj9hbvIwffvZX-5" target="Rha3YxTJj9hbvIwffvZX-6">
          <mxGeometry width="160" relative="1" as="geometry">
            <mxPoint x="600" y="340" as="sourcePoint" />
            <mxPoint x="600" y="262" as="targetPoint" />
          </mxGeometry>
        </mxCell>
        <mxCell id="Rha3YxTJj9hbvIwffvZX-14" value="&amp;lt;&amp;lt;extend&amp;gt;&amp;gt;" style="html=1;verticalAlign=bottom;labelBackgroundColor=none;endArrow=open;endFill=0;dashed=1;rounded=0;exitX=1;exitY=0.667;exitDx=0;exitDy=0;entryX=0;entryY=0.5;entryDx=0;entryDy=0;exitPerimeter=0;" edge="1" parent="1" source="Rha3YxTJj9hbvIwffvZX-5" target="Rha3YxTJj9hbvIwffvZX-12">
          <mxGeometry width="160" relative="1" as="geometry">
            <mxPoint x="597" y="329" as="sourcePoint" />
            <mxPoint x="720" y="250" as="targetPoint" />
          </mxGeometry>
        </mxCell>
        <mxCell id="Rha3YxTJj9hbvIwffvZX-15" value="&amp;lt;&amp;lt;extend&amp;gt;&amp;gt;" style="html=1;verticalAlign=bottom;labelBackgroundColor=none;endArrow=open;endFill=0;dashed=1;rounded=0;exitX=1;exitY=0.667;exitDx=0;exitDy=0;entryX=0.5;entryY=1;entryDx=0;entryDy=0;exitPerimeter=0;" edge="1" parent="1" target="Rha3YxTJj9hbvIwffvZX-6">
          <mxGeometry width="160" relative="1" as="geometry">
            <mxPoint x="760" y="340" as="sourcePoint" />
            <mxPoint x="870" y="360" as="targetPoint" />
          </mxGeometry>
        </mxCell>
      </root>
    </mxGraphModel>
  </diagram>
</mxfile>
